<svg xmlns:x="http://ns.adobe.com/Extensibility/1.0/" xmlns:i="http://ns.adobe.com/AdobeIllustrator/10.0/" xmlns:graph="http://ns.adobe.com/Graphs/1.0/" xmlns="http://www.w3.org/2000/svg" xmlns:xlink="http://www.w3.org/1999/xlink" version="1.1" x="0px" y="0px" viewBox="0 0 70 87.5" style="enable-background:new 0 0 70 70;" xml:space="preserve"><metadata><sfw xmlns="http://ns.adobe.com/SaveForWeb/1.0/"><slices/><sliceSourceBounds bottomLeftOrigin="true" height="66" width="66" x="2.1" y="2"/></sfw></metadata><path d="M67.4,62.2l-5.1-7.3V14.5c0-0.6-0.4-1-1-1H52C49.3,6.8,42.7,2,35,2c-6.3,0-11.8,3.2-15.1,7.9c-0.1,0.1-0.2,0.2-0.3,0.4  c-0.6,1-1.2,2-1.6,3.2H8.8c-0.6,0-1,0.4-1,1v40.4l-5.1,7.3C2,63.3,1.9,64.8,2.5,66s1.8,2,3.2,2h58.6c1.4,0,2.6-0.8,3.3-2  C68.3,64.8,68.2,63.3,67.4,62.2z M21.2,11.7h5.3c-0.6,2.3-1,4.9-1.1,7.7h-6.7C18.9,16.6,19.8,14,21.2,11.7z M51.3,19.4h-6.7  c-0.1-2.8-0.4-5.4-1.1-7.7h5.3C50.2,14,51.1,16.6,51.3,19.4z M25.4,21.4c0.1,2.4,0.3,4.7,0.8,6.7h-5.6c0,0,0,0,0,0  c-1.1-2-1.7-4.3-1.8-6.7H25.4z M36,36.6v-6.5h5.1C39.9,33.6,38,36,36,36.6z M28.9,30.1H34v6.5C32,36,30.1,33.6,28.9,30.1z M36,28.1  v-6.7h6.6c-0.1,2.4-0.4,4.7-0.9,6.7H36z M34,28.1h-5.7c-0.5-2-0.8-4.3-0.9-6.7H34V28.1z M26.8,30.1c0.7,2.4,1.8,4.3,3,5.8  c-3.2-1.1-6-3.1-7.9-5.8H26.8z M43.2,30.1h5c-2,2.7-4.7,4.7-7.9,5.8C41.4,34.5,42.4,32.5,43.2,30.1z M49.4,28.2  c-0.1,0-0.2-0.1-0.3-0.1h-5.3c0.5-2.1,0.8-4.3,0.8-6.7h6.7C51.1,23.8,50.5,26.1,49.4,28.2z M42.6,19.4H36v-7.7h5.4  C42.1,14,42.5,16.6,42.6,19.4z M36,9.7V4.2c1.8,0.6,3.5,2.6,4.7,5.5H36z M34,4.2v5.5h-4.7C30.5,6.8,32.2,4.7,34,4.2z M34,11.7v7.7  h-6.6c0.1-2.8,0.5-5.4,1.2-7.7H34z M16.7,20.3v0.2c0,10.1,8.2,18.3,18.3,18.3s18.3-8.2,18.3-18.3v-0.1v-0.1c0-0.3,0-0.7-0.1-1h3.2  v31.2H13.5V19.3h3.3C16.7,19.6,16.7,20,16.7,20.3z M47.4,9.7h-4.5c-0.7-1.9-1.6-3.6-2.6-4.8C43,5.8,45.5,7.5,47.4,9.7z M29.8,4.9  c-1,1.3-1.9,2.9-2.6,4.8h-4.5C24.5,7.5,27,5.8,29.8,4.9z M9.8,15.5h7.6c-0.2,0.6-0.3,1.2-0.4,1.8h-4.5c-0.6,0-1,0.4-1,1v33.2  c0,0.6,0.4,1,1,1h45c0.5,0,1-0.5,0.9-1V18.3c0-0.6-0.4-1-1-1H53c-0.1-0.6-0.2-1.2-0.4-1.8h7.7v38.7H9.8V15.5z M65.9,65.1  C65.6,65.7,65,66,64.4,66H5.7c-0.7,0-1.2-0.3-1.5-0.9c-0.3-0.5-0.3-1.2,0.1-1.7l5-7.2h51.5l5,7.2C66.2,63.9,66.2,64.5,65.9,65.1z"/><path d="M41,59.6c-0.2-0.4-0.5-0.7-1-0.7h-9.8c-0.5,0-0.9,0.3-1,0.7l-1.1,3.8c-0.1,0.3,0,0.7,0.2,0.9c0.2,0.3,0.5,0.4,0.8,0.4h11.8  c0.4,0,0.7-0.2,1-0.4c0.2-0.3,0.3-0.6,0.2-0.9L41,59.6z M30.4,62.7l0.5-1.8h8.3l0.5,1.8H30.4z"/></svg>